<svg t="1761239429546" class="icon" viewBox="0 0 1024 1024" version="1.1" xmlns="http://www.w3.org/2000/svg" p-id="2270" width="200" height="200"><path d="M358 334h26v26h-26z" p-id="2271" fill="#2c2c2c"></path><path d="M358 358h26v26h-26zM694 454h26v26h-26z" p-id="2272" fill="#2c2c2c"></path><path d="M718 454h26v26h-26z" p-id="2273" fill="#2c2c2c"></path><path d="M742 454h26v26h-26z" p-id="2274" fill="#2c2c2c"></path><path d="M766 454h26v26h-26z" p-id="2275" fill="#2c2c2c"></path><path d="M790 454h26v26h-26z" p-id="2276" fill="#2c2c2c"></path><path d="M814 454h26v26h-26z" p-id="2277" fill="#2c2c2c"></path><path d="M838 454h26v26h-26zM406 478h26v26h-26zM550 478h26v26h-26z" p-id="2278" fill="#2c2c2c"></path><path d="M574 478h26v26h-26z" p-id="2279" fill="#2c2c2c"></path><path d="M598 478h26v26h-26z" p-id="2280" fill="#2c2c2c"></path><path d="M622 478h26v26h-26z" p-id="2281" fill="#2c2c2c"></path><path d="M646 478h26v26h-26z" p-id="2282" fill="#2c2c2c"></path><path d="M670 478h26v26h-26z" p-id="2283" fill="#2c2c2c"></path><path d="M694 478h26v26h-26z" p-id="2284" fill="#2c2c2c"></path><path d="M718 478h26v26h-26z" p-id="2285" fill="#2c2c2c"></path><path d="M742 478h26v26h-26z" p-id="2286" fill="#2c2c2c"></path><path d="M766 478h26v26h-26z" p-id="2287" fill="#2c2c2c"></path><path d="M790 478h26v26h-26z" p-id="2288" fill="#2c2c2c"></path><path d="M814 478h26v26h-26zM406 502h26v26h-26zM550 502h26v26h-26z" p-id="2289" fill="#2c2c2c"></path><path d="M574 502h26v26h-26z" p-id="2290" fill="#2c2c2c"></path><path d="M598 502h26v26h-26z" p-id="2291" fill="#2c2c2c"></path><path d="M622 502h26v26h-26z" p-id="2292" fill="#2c2c2c"></path><path d="M646 502h26v26h-26z" p-id="2293" fill="#2c2c2c"></path><path d="M670 502h26v26h-26z" p-id="2294" fill="#2c2c2c"></path><path d="M694 502h26v26h-26z" p-id="2295" fill="#2c2c2c"></path><path d="M718 502h26v26h-26z" p-id="2296" fill="#2c2c2c"></path><path d="M742 502h26v26h-26z" p-id="2297" fill="#2c2c2c"></path><path d="M766 502h26v26h-26z" p-id="2298" fill="#2c2c2c"></path><path d="M790 502h26v26h-26z" p-id="2299" fill="#2c2c2c"></path><path d="M814 502h26v26h-26zM694 550h26v26h-26z" p-id="2300" fill="#2c2c2c"></path><path d="M718 550h26v26h-26z" p-id="2301" fill="#2c2c2c"></path><path d="M742 550h26v26h-26z" p-id="2302" fill="#2c2c2c"></path><path d="M766 550h26v26h-26z" p-id="2303" fill="#2c2c2c"></path><path d="M790 550h26v26h-26z" p-id="2304" fill="#2c2c2c"></path><path d="M814 550h26v26h-26zM574 574h26v26h-26z" p-id="2305" fill="#2c2c2c"></path><path d="M598 574h26v26h-26z" p-id="2306" fill="#2c2c2c"></path><path d="M622 574h26v26h-26zM742 598h26v26h-26zM118 622h26v26H118z" p-id="2307" fill="#2c2c2c"></path><path d="M142 622h26v26H142z" p-id="2308" fill="#2c2c2c"></path><path d="M166 622h26v26H166z" p-id="2309" fill="#2c2c2c"></path><path d="M190 622h26v26H190zM310 622h26v26h-26z" p-id="2310" fill="#2c2c2c"></path><path d="M334 622h26v26h-26z" p-id="2311" fill="#2c2c2c"></path><path d="M358 622h26v26h-26zM598 622h26v26h-26z" p-id="2312" fill="#2c2c2c"></path><path d="M622 622h26v26h-26zM118 646h26v26H118z" p-id="2313" fill="#2c2c2c"></path><path d="M598 646h26v26h-26z" p-id="2314" fill="#2c2c2c"></path><path d="M435 291.4c-47.4 1.8-107.6 8.4-126 13.6-15 4.2-26.4 17.4-56 64.4-6.4 10.2-12 18.6-12.4 18.6-0.4 0-2.2-1.4-3.8-3-3.4-3.2-16.2-4-20.4-1.2-1.8 1.2-2.8 6-2.6 15 0 12-0.4 13.2-4.4 14.2-2.4 0.6-21 3.8-41.4 7-36.4 6.2-101.2 17.8-121.4 22-12 2.6-19 7.4-25.8 18.2C16.4 467.2 16 470 16 491.4c0 21.2 2 41.6 5.2 57.2 1 5 0.6 5.4-5.6 5.4-11.4 0-15.6 4.6-15.6 17 0 13 6.6 35 11.8 39.8 3.4 3.2 28 6.8 47.8 7.2 4 0 4.4 1 4.4 10 0 25.2 10.2 50.6 27.6 67.8l11.6 11.8-25 2.2c-14 1.2-28.4 3-32.2 3.8-10.4 2 109 4 122.8 2 15.4-2.4 29.4-9.6 40.4-21.2 9.2-9.6 21.2-31.8 23.8-44l1.4-6.6 27.2 1.4c23.8 1.2 28 2 34 6.2 8.6 5.8 13.2 5.8 23.4 0.4 7.4-4 9.8-4.2 32.8-3 13.8 0.8 25.4 1.6 25.8 2 0.4 0.4 2 6.4 3.6 13.2 5.8 25.4 19.2 45.4 38.6 57.8 8.2 5.4 13.4 6.8 32.4 9.4 12.6 1.6 27.6 2.6 33.2 2 26.4-3 48.6-18.4 60.8-42.2l6.8-13H586c18.2 0 36.4-1 40.8-2.2 16.6-4.6 34.4-27.6 39.2-51.2l2.2-10.4 24.4 1.2c23.2 1 24.6 1.2 29.2 6.2 14.8 16.6 34.6 16.6 46.2 0.4 4.2-6 4.4-6 22.8-6h18.6l3.2 16.4c6 30.4 22 53.6 39.2 56.8 9.2 1.8 111.4-0.6 119.2-2.8 5.4-1.6 4.6-1.8-6.8-3-7-0.8-17-1.4-22-1.4s-12.4-0.6-16.4-1.2l-7.2-1.2 6.4-9.6c11.6-17.2 15.4-31.6 16.4-62.6l1-27.4 11.4-3.2c6.2-1.8 15.6-4.4 21-6 11.6-3.2 19.2-3.6 19.2-0.8s12 2.4 18-0.6 11.8-18.2 12-30.8c0-6.8-0.8-8.6-4.2-9.6-2.8-1-3.6-2.4-2.8-4.6 0.8-2 1.8-14.6 2.4-28.4 1.2-28-1.8-46.6-10.2-65-3.8-8.2-6.2-11.2-10.4-12.2-3-0.8-70.8-0.8-150.6 0l-145.2 1.4-7-28.6c-8-33.2-20.4-71.4-26.2-81-4.8-7.6-14.6-11.2-40.8-14.4-37.2-4.8-133.8-7.2-194-4.8z m167 8.8c42.8 2.8 49.6 4.8 16.6 4.8-15.2 0-34 1.2-41.6 2.8-11.8 2.2-17.4 2.2-32 0.2-10.2-1.4-52.6-3.2-97-4-43.4-0.6-75-1.6-70-1.8 5-0.4 18.4-1.4 30-2.2 33.8-2.2 160.4-2.2 194 0.2z m-237.4 5.2c-2.6 0.4-6.6 0.4-9 0-2.6-0.4-0.6-0.8 4.4-0.8s7 0.4 4.6 0.8z m296 5.4c3.4 3.2 7.6 12.4 13.2 30 10.8 32.8 20.2 69.6 20.2 78.4 0 4.8 1 6.8 3 6.8 3.4 0 13 18.2 13 24.4 0 2.8-1.8 3.6-8.4 3.6-6.8-0.2-7.8-0.6-5-2.2 4.8-2.8 4.2-9.6-1-11.6-6.4-2.4-27-0.2-29.8 3-3.6 4.4-0.2 6.8 9.4 6.8 6.4 0 8.8 0.8 8.4 2.4-0.8 2-15.2 3.2-55.8 4.8-30.2 1.2-55.8 1.8-57.2 1.4-1.2-0.6-2.8-2.4-3.2-4.2-0.6-2.4-1-2-1.2 1-0.2 3.6-1.4 4.6-5.8 4.6-25 0-129.4 8.6-148.4 12.4-25.8 5-27.4 8.8-24.2 56.6 1.4 18.4 2 34 1.4 34.4-2 2.2-3-4.4-3.8-28.4-1.6-39.2-8.6-61-21.2-65.2-3.8-1.4 1.8-12 8.8-16.6 8.8-5.8 43-11.2 134-21.8 15.2-1.8 21.8-3.4 21.6-5-0.4-1.6 2.8-2.4 10-2.4 11.8 0 13.8 1 17.4 8 1.4 2.8 3 4 3.4 2.6 0.6-1.4-0.2-4.2-1.4-6.4-2-4-1.6-4.2 9-4.2 7.4 0 10.8 0.8 10 2-0.8 1.2 0.2 4.4 1.8 7 5.8 8.8 22 4.8 23.6-5.6 0.6-4.4 1.4-4.4 35.4-5.6 30.6-1.2 35.2-1.8 37.6-5 1.4-2 2.6-5.4 2.8-7.6 0-2.4 2.8 2.6 6 10.8 5.8 14.4 11.6 23.8 9.2 15-2-7.4-7.2-29.8-13.6-57-3.4-14.8-9-35.4-12.4-45.8-5.6-16.6-7.2-19.2-13.4-22.4-5.4-3-6-3.8-2.8-3.8 2.4 0 6.6 2.2 9.4 4.8zM536 314l15 1.8-17-0.8c-9.4-0.6-52-1.2-95-1.4-53.6-0.4-68-0.8-46-1.6 40.8-1.2 123.6-0.2 143 2z m-191.4 1.4c-2.6 0.4-6.6 0.4-9 0-2.6-0.4-0.6-0.8 4.4-0.8s7 0.4 4.6 0.8z m250 0c-1.4 0.4-3.8 0.4-5 0-1.4-0.6-0.4-1 2.4-1s3.8 0.4 2.6 1z m42 0c-1.4 0.4-3.8 0.4-5 0-1.4-0.6-0.4-1 2.4-1s3.8 0.4 2.6 1z m-319.2 1.8c-0.6 0.6-2.4 0.8-3.8 0.2-1.6-0.6-1-1.2 1.2-1.2 2.2-0.2 3.4 0.4 2.6 1z m244.2 2c5.8 4 5.6 7.8-1.8 40.6-8.6 37.6-12.4 47-21 52.2-10.2 6.4-32.4 7.2-58.8 2-15.8-3-18-3.8-9-3 6.6 0.6 23 1.6 36.4 2.4 35.2 1.8 36 1.2 47.4-44.6 9.8-39.4 10-45.2 1.8-49.6-3.2-1.8-4.2-3-2.6-3.2 1.8 0 5.2 1.4 7.6 3.2z m18.8 2.6c-1.8 3.2-3.6 5.6-4.2 5.2-0.8-1 5.4-11 6.8-11 0.4 0-0.8 2.6-2.6 5.8z m-49.2 1.2c10 0.4 19.6 1.4 21.4 2.2 4.8 1.8 4.4 8.2-2 34l-5.4 22.4-13 1.2c-7.2 0.8-14 2.2-15.2 3.2-1.6 1.2-5 0.6-10-2-5.6-2.8-11.8-4-21.2-4-15.2 0-24 4.4-30.8 15.6l-4 6.6-13.4-1.2c-7.4-0.6-18-2.8-23.6-5-5.6-2.2-12.8-4-15.8-4-6.6 0-6.4 1.8-1.4-32l2.2-15 15.6-0.6 15.4-0.6v-5.6c0-6.6-3.4-8.2-18.8-8.2-8 0-9.4-0.6-8.4-3.2 0.6-1.8 1.2-4 1.2-5 0-1.6 84.6-1 127.2 1.2z m-175.2 2.2c2.2 2.4 1.8 9.2-2.6 38.4-3 19.4-5.4 36.6-5.4 37.8 0 2 8 2.6 32.6 2.8 17.8 0.2 35 0.8 38.4 1.6 3.2 0.6-17.4 1-45.8 0.6-53.4-0.4-61.2-1.2-61.2-5.4 0-1.4-4-3-10.4-3.8-16.2-1.8-37.6-1.4-37.6 0.8 0 1-1.4 2-3 2s-3-0.6-3-1.6c0-4.6 36.8-65.4 42.6-70 1.6-1.4 10.6-3.4 19.8-4.2 27-2.6 32.8-2.4 35.6 1z m283 0.8c3 1.2 6.4 4.8 8.2 9 3.8 9.2 16.4 61 17.2 70.6l0.6 7.4-10.4 0.6-10.6 0.6v-14.6c0-8.8-1-15.8-2.4-17.2-1.4-1.4-8.8-2.4-19.6-2.4-22.8 0-25 1.6-26.8 19.8l-1.4 13.8-10.8 0.8-10.8 0.6-2.2-8.4c-2.2-7.4-1.6-11.8 5.8-43 5.4-22.2 9.6-35.4 11.6-37.2 4-3 43.8-3.4 51.6-0.4z m-71.6 40.4c-0.6 1.6-1.2 1-1.2-1.2-0.2-2.2 0.4-3.4 1-2.6 0.6 0.6 0.8 2.4 0.2 3.8z m53.6 20.6c-12.4 3.2-17 3.6-17 1.2 0-2 9-3.4 21-3.6 4.4 0 3.4 0.6-4 2.4zM502 390c10.4 5.4 11.4 7.6 5.6 13.2-4.8 4.8-5.2 4.8-22.8 2.8-9.8-1-19.4-2-21.2-2-4.6 0-4.6-6.4 0-10.6 9-8.2 26.2-9.6 38.4-3.4z m59.4 2.4c-0.6 1.6-1.2 1-1.2-1.2-0.2-2.2 0.4-3.4 1-2.6 0.6 0.6 0.8 2.4 0.2 3.8z m-2 10c-0.6 1.4-1 0.4-1-2.4s0.4-3.8 1-2.6c0.4 1.4 0.4 3.8 0 5z m-263.8 1.4c3.4 2-14 4.2-31.6 4l-13-0.4 19-2.4c10.4-1.2 20-2.6 21-2.6 1.2-0.2 3.2 0.4 4.6 1.4z m160 5.6c-2 0.4-5.6 0.4-8 0-2.6-0.4-1-0.8 3.4-0.8 4.4-0.2 6.4 0.2 4.6 0.8z m101.8 6c-0.6 2-1 0.8-1-2.4 0-3.4 0.4-4.8 1-3.6 0.4 1.4 0.4 4.2 0 6z m-132.8 0.6c5.2 1 12.4 2.2 16 2.2 6.8 0.2-4.6 2.2-74.6 12-60.4 8.4-72.6 12-65.8 19 2.8 2.8 6.2 2.4 35-3 48.8-9.4 119.4-18.4 122-15.6 0.6 0.4-5.2 1.6-12.6 2.4-21 2.2-56.8 8.8-65.8 12-4.4 1.8-10.6 5.8-13.8 9-3.6 3.6-6.6 5.2-7.8 4.2-1.2-1-14.2-2.2-28.8-2.8-23.4-0.8-27.2-1.4-31.2-5.2-4-3.8-8-4.2-49.2-6.2-24.8-1-49.4-2-55-2-7.6-0.2-9.2-0.6-6.6-2.2 3.6-2 78-17 113.6-22.8 11.6-2 22-4 23.4-4.8 3.4-1.8 90 1.4 101.2 3.8z m-144.6-0.8c-75.2 14.4-90.2 17.8-99 21.8-9 4-14 4.6-52 5.8-25.4 0.8-40.8 0.6-39-0.6 3.8-2.4 34.4-8.4 86-17 49.4-8.2 84.2-12.4 108-12.6l11-0.2-15 2.8z m319.8 0.2c-5.8 7.8-10.6 12.6-12.6 12.6-1 0 1.6-3.6 5.8-8 8.2-8.4 11.4-10.4 6.8-4.6z m-108.4 11.8c-0.6 0.6-2.4 0.8-3.8 0.2-1.6-0.6-1-1.2 1.2-1.2 2.2-0.2 3.4 0.4 2.6 1z m511.4 6.8c1.8 4.4 3.2 8.4 3.2 8.8 0 0.4-21.4 1.4-47.4 2-26.2 0.8-86.8 2.8-134.6 4.4-47.8 1.8-90.8 2.8-95.6 2.4-8.6-0.6-8.8-0.8-12.4-11.6-2.2-6-3.8-11.2-4-11.4 0-0.8 74.6-1.6 184.2-2.2l103.4-0.4 3.2 8z m-530.2-4.6c-1.4 0.4-4.2 0.4-6 0-2-0.6-0.8-1 2.4-1 3.4 0 4.8 0.4 3.6 1z m-399.8 17.6c-0.8 2-4 3-8.8 3-4 0-11.8 0.6-17.2 1.2-14.4 2-9-1.6 6.8-4.4 18.6-3.4 20.4-3.4 19.2 0.2z m100.8 20.4c-18.6 0.4-48.6 0.4-67 0-18.6-0.2-3.4-0.6 33.4-0.6s52 0.4 33.6 0.6z m-128 2c-2 0.4-5.2 0.4-7 0-2-0.6-0.4-1 3.4-1s5.4 0.4 3.6 1z m297 4c-1.4 0.4-4.2 0.4-6 0-2-0.6-0.8-1 2.4-1 3.4 0 4.8 0.4 3.6 1z m-60.2 2.2c9.6 0.8 18.4 2.4 19.8 3.8 2.6 2.6 7.6 38.4 7.8 55.8 0 13.2-2.2 17.6-10 19.4-5.4 1.4-222-4-229.4-5.8-3.2-0.6-4.6-2.4-4.6-5.8 0-6 2.6-6.4 9.2-1.2 3.8 3 9.6 4 28.2 5 39 2.2 184.2 5.2 190.4 4 9.4-2 10.8-8.4 8.4-37-1.8-21.8-2.6-25-6.6-28-3.6-2.8-12.4-3.6-61.4-4.6-31.4-0.6-78.8-1.8-105.4-2.4-53.6-1.4-54.8-1-54.8 11.8 0 11.8 0.4 11.8 39.8 13 36 1 36.2 1 36.2 5.6 0 2.4-1.2 4.8-2.4 5.4-1.4 0.4-18.2 0.4-37.2-0.2l-34.6-1 1.4 8.8c1.8 12.2 4 15.4 10.2 16.4 5.4 0.8 5.4 0.8-0.6 1.2-3.4 0-7.4-1-8.6-2.6-4.6-5.6-9.2-55-5.6-60.8 1.2-1.8 22.8-2.4 97-2.2 52.4 0 103.2 0.8 112.8 1.4z m628.2 2.2c10.4 1.8 19.4 8.6 24.8 19l3.2 6-6.4-5.4c-5.6-4.8-8.2-5.4-20.2-5.4-36.8 0-47.4 8.4-63.4 50-7.2 18.6-7.4 14.6-0.4-16 7.4-31.6 15.6-43.6 33-47.8 9.8-2.2 17.2-2.4 29.4-0.4z m-593.8 5.6c-1.8 7-1.8 9.8 0.6 29.6 1.2 8.8 1.8 16.4 1.4 16.8-2 2.4-4.8-3.4-5-10.4 0-4.6-1.2-15.8-2.6-25l-2.4-16.4h4.8c4.4 0 4.6 0.6 3.2 5.4z m-264.6 6.4c5 5.2 5.8 7.4 5.8 17.4 0 9-1 12.6-4.4 16.2-6.8 7.4-15.8 5.4-21.2-4.8-2.2-4-1.6-4.6 8.2-8l10.4-3.6-7.6-0.6c-4.2-0.4-9 0.4-10.6 1.8-4.2 3.4-5.4 1-4-7 1.6-8.6 8.4-17.2 13.4-17.2 2.4 0 6.8 2.6 10 5.8z m295.6 1.4c8.8 6.2 13 23.8 8 33.4-3.2 6-10 11.4-14.8 11.4-4.6 0-11.6-5.2-14.6-11-1.8-3.6-1-4.2 10-7.6 15.2-4.6 13.2-8.6-2.2-4.6l-10.6 2.8 1-9.2c0.8-6.8 2.4-10.6 6.4-13.8 6.2-5.4 10.4-5.8 16.8-1.4z m29.2 13.6c1.6 8.6 3.6 25.8 4.4 38.4 1.2 22.8 1.2 22.8-3.4 22.8-3.4 0-4.2-0.8-3-3.6 1-1.8 2-6.2 2.4-9.6 1-6.6-2.6-52.6-4.6-60.8-0.8-2.8-0.8-4.4 0-3.8 0.6 0.6 2.6 8.2 4.2 16.6z m141.6-14c9 3.2 13.8 7.4 21.6 18 7.6 10.2 7.4 12.8-0.2 6.4-8-6.6-15.4-7.8-44.8-6.8-21.8 0.6-25.6 1.4-36 6.4-13.6 6.6-19.2 14.4-29.2 40-6.8 18-11.4 22.8-9 9.6 3-16 15.4-50.2 21-58 5.8-8 13.6-13.4 24-16.6 8.6-2.6 44.4-1.8 52.6 1zM284.4 494c5 2-93.8 0.8-162.4-2.2-26.8-1-8.4-1.2 59.4-0.6 54.8 0.4 100.4 1.6 103 2.8z m83 0.4c-0.6 1.6-1.2 1-1.2-1.2-0.2-2.2 0.4-3.4 1-2.6 0.6 0.6 0.8 2.4 0.2 3.8z m564.2 6.8c9 6.4 11.2 14 11.6 42.8l0.4 27-1.4-27c-1.6-28.2-4.2-37.8-12-42-5.2-2.6-35.2-2.6-45.2 0.2-4.6 1.4-10.8 5.4-14.8 9.6-3.8 4-6 5.4-4.8 3.2 6.4-11.8 19.2-16.8 43.6-17 13.2 0 19.2 0.8 22.6 3.2z m-748.6 0.8c0.6 1 4.4 2 8.2 2 6.2 0 6.8 0.4 6.8 6s-0.6 6-6.8 6c-3.8 0-7.6 0.8-8.2 2-0.6 1-3.8 2-7 2s-6.4-1-7-2c-0.6-1.2-4.4-2-8.2-2-6.2 0-6.8-0.4-6.8-6s0.6-6 6.8-6c3.8 0 7.6-1 8.2-2 0.6-1.2 3.8-2 7-2s6.4 0.8 7 2z m115 7.6v9.6l-29.4-0.6c-16.4-0.4-38-1.2-48-1.8-18-1.2-18.6-1.4-18.6-6V506h47c40.4 0 47-0.4 47-3 0-1.6 0.4-3 1-3s1 4.4 1 9.6z m71.4 1.8c-0.6 2-1 0.4-1-3.4s0.4-5.4 1-3.6c0.4 2 0.4 5.2 0 7z m-6 3c-0.6 1.4-1 0.4-1-2.4s0.4-3.8 1-2.6c0.4 1.4 0.4 3.8 0 5z m165.2 0.4c9.6 3.6 14.8 8.2 19.6 17.8 4.4 8.4 10 41.4 9.4 56.4-0.2 7.6-0.6 5.6-2-8-2.4-24.8-7-44.8-11.6-52.4-6.8-11.4-13.8-13.6-41-13.4-45.6 0.4-53.8 6.4-68.8 49.2-8.6 24.4-10.6 27.2-4.2 5.4 11.4-38 22.2-50.8 46.6-55.6 13.4-2.8 43.6-2.4 52 0.6z m-327.6 13.4c47.4 1.2 86.4 2.6 86.8 3 0.4 0.4 0.4 1.2-0.2 1.8-1.4 1.4-169.2-3-187.6-4.8l-15-1.6 15-0.4c8.2 0 53.8 0.8 101 2z m672-0.2c-0.6 1-2.4 2-3.6 2-1.4 0-1.2-0.8 0.6-2 3.8-2.4 4.6-2.4 3 0z m21-0.2c0 1 3.6 2.2 8 3 6.6 1 9.2 3 16 11.8 13.4 18 16.6 30 16.8 61.4 0 23-0.6 29-4.6 40-8.4 24.6-21 37.6-37.2 39.6-5.6 0.6-9 0.2-9-1.2 0-1-2-1.6-4.4-0.8-2.8 0.6-3.8 0.4-2.8-1.2s-0.2-2.4-3.6-2.4c-2.8 0-5.6-1-6.2-2-0.6-1.2 0.2-2 1.8-2 1.8 0 3.2-1 3.2-2 0-2.2-8.6-2.8-10.6-0.6-0.8 0.6 0.6 3.4 3 6s3.8 4.6 3.4 4.6c-0.6 0-4-3-7.6-6.8-3.6-3.8-5.4-6.8-4-6.6 7 0.2 10-0.8 9.2-3.2-0.4-1.2-2-2.2-3.4-1.8-1.4 0.4-4 0-5.6-0.6-2.6-1-2.4-1.6 0.8-4s3.4-2.8 0.6-3c-1.8 0-4.4-1.4-5.8-3-2-2.6-1.8-3 2-3 4.8 0 4.6-5-0.2-5-1.6 0-4-0.8-5.2-1.6-1.8-1-2.6-0.4-2.8 2-0.2 2-1 0.8-2.2-2.8-1.6-5-1.4-7 1-9.4 1.8-1.8 4-3.2 5.2-3.2 1.2 0 2.2-1 2.2-2 0-3.6-9.6-2.2-10.6 1.4-0.6 2-1 0.2-1.2-3.8-0.2-6.4 0.4-7.2 3.4-6.2 1.8 0.6 4.6 2 6 3.2 1.8 1.4 2.4 0.8 2.4-2.4 0-3.4-1.2-4.2-6-4.2-4.6 0-6-0.8-6-4 0-3.4 0.6-3.6 5.2-2 7 2.8 6.8 3 6.8-6 0-7.2-0.4-8-5-8-2.8 0-5 0.8-5 2 0 1 1.4 2 3 2s3 1.2 3 2.8c0 1.8-1.8 2.8-4 2.6-3.2-0.2-4-1.6-4-7.8 0-8 1.6-9 8.2-5.6 3.2 1.8 3.8 1.4 3.8-2.2 0-3.4-1-4-5-3.4-4.2 0.8-4.6 0.6-2.6-1.8 1.2-1.6 4-2.4 6-2 2 0.6 3.6 0.8 3.6 0.4s0.6-2.2 1.4-4.2c1-2.8 0.4-3.2-3-2.4-4.8 1.4-5 1.2-3.2-3 0.6-1.8 2.6-2.6 5-2 4.6 1.2 5.2-2.4 0.8-5-4.6-2.4-1.6-9 3-6.4 3.8 2 6 0.8 6-3.4 0-1.6-0.8-2.2-2-1.6-3 1.8-6-0.8-4.8-4 1-2.2 2-2.4 5.2-0.4 3.2 1.8 4.4 1.8 5-0.2 0.6-1.4 2.4-4 4.2-5.6 3-3 2.8-3.4-0.2-5.8-4.4-3.2-2-5.4 2.8-2.4 2.8 1.8 4.8 1.8 7.2 0.2 4.6-2.8 5.6-6.8 1.8-6.8-1.8 0-3.2 1-3.2 2.2 0 1-1 1.4-2.4 0.6-1.6-1-0.4-2.4 3.4-4 7-3 13-3.6 13-1z m-35.8 5.6c-2.4 4-2.8 2.8-1-2.4 0.8-1.8 1.8-2.8 2.2-2.2 0.6 0.4 0 2.6-1.2 4.6z m146.8-4.2c-3.2 1.2-50 6.4-50.8 5.6-1.8-1.8 1.6-2.6 17.8-4.4 17.8-2 36.4-2.6 33-1.2z m-634.8 11.4c-2.6 2.6-3-0.2-0.8-6 1.4-3.4 1.6-3.4 2.2 0.2 0.4 2-0.2 4.6-1.4 5.8zM62 544c0 3.4-1.8 3.8-14.4 4.4-11.6 0.4-14.4 1.2-14 3.6 0.2 2-0.4 1.8-2.6-0.8-1.6-2.2-3-5.8-3-8 0-4 1-4.2 17-3.6 15 0.6 17 1.2 17 4.4z m201.4-1c20 0 33.8 0.8 33 1.8-1 1.8-117.4 0-173.4-2.8-16.4-0.8 0.6-0.8 38-0.2 37.4 0.6 83.4 1.2 102.4 1.2z m66.2-1.6c-2 0.4-5.2 0.4-7 0-2-0.6-0.4-1 3.4-1s5.4 0.4 3.6 1z m509.8-0.2c-1.2 1.2-86.4 6.6-106.8 6.8-10 0-12.4-5.2-3-6.6 9-1.4 111.2-1.4 109.8-0.2z m-372.6 3.8c3.8 2.8 3.8 3-1.2 3-2.8 0-5.6 1.4-6.4 3-0.6 1.8-2.4 2.4-4.4 1.6-2.6-1-2-2 3.2-4.6 4.6-2.4 5.8-3.8 3.8-4.6-1.6-0.6-1.8-1.2-0.8-1.2 1.2 0 3.8 1.2 5.8 2.8z m10.2-1c1.6 2.6-1 2.6-5 0-2.6-1.6-2.6-2 0.4-2 1.8 0 4 0.8 4.6 2z m10.4-0.8c-0.6 0.6-2.4 0.8-3.8 0.2-1.6-0.6-1-1.2 1.2-1.2 2.2-0.2 3.4 0.4 2.6 1z m10 1.8c0.6 1.8 2.6 3 4.4 2.8 6.4-1 17.4 5.8 26.8 16 13.4 15 20.8 31.6 23.4 52.4 6.2 46.8-12.4 87.2-47.2 103.2-9 4.2-13.4 4.8-27.2 4.4-18.2-0.6-22.2-1.4-20.4-4 0.6-1-2.2-1.8-6.4-1.8-6.2 0-7-0.4-4.8-3s1.6-3-3.6-3c-3.4 0-6.8-1-7.4-2-0.6-1.2 0.2-2 2-2s3-1.2 2.4-2.6c-0.4-1.2-2.6-2.2-5-2-2.2 0.2-5.2-0.8-6.4-2.4-2-2.4-1.8-3 0.8-3 4.2 0 4-2.8-0.2-6.2-2.6-2.2-3.4-2.2-4-0.2-0.6 1.2-1.8 2-2.8 1.2-2.8-1.6-2.2-4.8 1.2-4.8 1.6 0 3-1 3-2 0-1.2-2.2-2-5-2s-5-0.4-5-0.8-0.6-2.2-1.2-3.8c-0.8-2.4 0-2.8 3-2 3 0.8 4.2 0.2 4.2-2.4 0-2.4-1.2-3.2-4-2.4-2.6 0.6-4.8-0.2-6-2.8-1.8-3.2-1.4-3.8 2-3.8 2.2 0 4 1 4 2.4 0 1.2 0.4 1.8 1 1.2 2.2-2.2-1.6-7.6-5.2-7.6-2 0-3.8-0.4-3.8-0.8s-0.6-2.2-1.2-4c-1-2.4 0-3.2 4.2-3.2s5.2-0.8 4.2-3.2c-0.6-1.8-1.2-6.8-1.2-11.4-0.2-6.6-0.6-7.6-2.2-5-3 5.2-5.8 4.4-5.8-1.4 0-4.4 0.6-5 5-3.8 4.4 1 5 0.6 5-4 0-3 1.4-7.4 3-9.8 1.6-2.6 4.8-10 7-16.4 2.2-6.4 5.4-13.8 7-16.4 1.6-2.4 2.8-6.4 2.4-9-0.2-3.6 0.4-4.4 3.8-4 4.2 0.6 11.8-7.8 9.4-10.4-2.2-2.2-4.6-1.2-4.6 1.8 0 1.8-1.8 3-4.4 3h-4.6l5-4c5.4-4.2 9.2-5 11-2.2 0.6 1.2 6.2-0.6 12.2-4 6.2-3.2 14.2-5.8 17.8-5.8 9.2 0 14.2-2 10.6-4.2-2-1.4-2-1.8 0-1.8 1.4 0 3 1.4 3.8 3z m214.2 0.4c-0.8 4 2 3.6-81.4 9.4-24.6 1.8-45.4 2.6-46.4 2-1-0.6-1.8-2.8-1.8-5 0-3.6 1.2-4 11.6-3.8 6.2 0.2 23.6-0.6 38.4-1.8 14.8-1.2 34.6-2.6 44-2.8 9.4-0.4 21.4-0.8 26.6-1 8.2-0.4 9.6 0.2 9 3z m155.4-1.4c-0.6 1-2 2-3.2 2-1 0-1.8-1-1.8-2 0-1.2 1.4-2 3.2-2 1.6 0 2.4 0.8 1.8 2z m-16.2 10.8c-1.8 5.2-3.6 9-4 8.6-0.4-0.4 0.6-5 2.4-10.2 1.8-5.2 3.6-9 4-8.6 0.4 0.4-0.6 5-2.4 10.2z m-398.8-8c0 0.6-0.8 1.6-2 2.2-1 0.6-2 0.2-2-0.8 0-1.2 1-2.2 2-2.2 1.2 0 2 0.4 2 0.8z m-130 5.2c0 3-1.4 4-5 4-5.4 0-5.6-0.2-3.8-4.8 1.8-4.8 8.8-4 8.8 0.8z m48 1.2v5.4l-20.4-1.6c-22.4-1.6-23.6-1.8-23.6-6.2 0-2.2 4.2-2.8 22-2.8h22v5.2z m208 1.8c0 4.4-0.8 5-6.8 5-11.4 0-10.8-6.4 0.8-8.6 2.8-0.4 5.2-1 5.6-1.2 0.2 0 0.4 2 0.4 4.8z m-515.4 0.4c-1.4 0.4-4.2 0.4-6 0-2-0.6-0.8-1 2.4-1 3.4 0 4.8 0.4 3.6 1z m50.8 1.8c-0.6 0.6-2.4 0.8-3.8 0.2-1.6-0.6-1-1.2 1.2-1.2 2.2-0.2 3.4 0.4 2.6 1z m55.2 2.2c-1.4 0.4-4.2 0.4-6 0-2-0.6-0.8-1 2.4-1 3.4 0 4.8 0.4 3.6 1z m74 2c-3.6 0.4-9.6 0.4-13 0-3.6-0.4-0.8-0.8 6.4-0.8s10 0.4 6.6 0.8zM64 571.6v9.8l-27.4-1c-17.2-0.6-28.2-1.8-29-3.2-2-2.8-2-12-0.2-13.8 0.6-0.8 13.8-1.4 29-1.4H64v9.6z m284.6-8.2c-9.2 0.4-24 0.4-33 0-9.2-0.2-1.8-0.6 16.4-0.6s25.6 0.4 16.6 0.6z m-143 3.8l44.4 1.4v19.4h-8.6c-4.8 0-15.6-0.6-24-1.2-14.4-1.2-15.4-1.8-15.4-6 0-2.4-1-5.2-2.4-6-3.6-2.2-62.2-4.4-66-2.4-2 1-3.6 3.6-3.6 5.6 0 3.8-1.4 4-24 4H82v-6.6c0-12.6-8.4-12 123.6-8.2z m-129.2 17c0.8 9.2 1.8 19.8 2.4 23.2 0.4 3.6 0.2 6.6-0.6 6.6-4.6 0-6.8-7.6-7.8-27.2-0.8-17.8-0.6-21.2 1.8-20.4 2 0.6 3.2 6 4.2 17.8z m766.8-9.6c-2.6 6.4-9.8 11.4-12.6 8.6-0.8-0.6 0.2-1.2 2-1.2s5.4-3.6 7.8-7.8c5.4-9.6 7-9.2 2.8 0.4z m-429.6 4.2l0.6 6.6-17.8 2.4c-18.6 2.4-106 3-118.8 1-7-1.2-7.6-1.8-7.6-7.8 0-5.4 1-7 5.6-8.6 3.2-1 32.8-1.6 71.4-1l66 0.8 0.6 6.6z m-150.8 12.6c0.8 9.8 1.8 21 2.4 25.2 1.2 7.2 1 7.6-2.8 5.6-4.4-2.4-6.4-13-6.4-34.4 0-10.4 0.6-13.8 2.8-13.8 2 0 3 4.6 4 17.4z m-66.4-10.8c0.8 1.4 1.6 8.2 1.6 15.4 0 7.2 0.6 15.2 1.4 17.8l1.2 4.8-29.8-1.4c-16.2-0.6-30.4-2-31.4-3s-2.4-10.2-3-20.4l-1-18.4 29.8 1.4c19.2 1 30.2 2.4 31.2 3.8z m631.4 4.2c-1.4 1.4-114.2 11.6-115.2 10.4-1.4-1.4 11.2-2.8 57.4-7 42.6-3.8 59.2-4.8 57.8-3.4z m-763 4.4c0.6 1.8 1.2 7.2 1.2 12.2v9l-23.4-1.4c-13-0.8-24.6-2.4-26-3.4-1.2-1-3.6-5.8-5.4-10.8L8.2 586H36c23.2 0 27.8 0.4 28.8 3.2z m64.8 0c1.6 0.4 2.4 4.6 2.4 12v11.4l-19.4-1.4c-24.6-1.8-28.6-4-28.6-16.4v-9l21.6 1.4c11.8 0.6 22.6 1.4 24 2z m119.6 5.2c0.8 0.8 1.8 6 2.4 11.6l1 10h-21.2c-11.6 0-22.4-0.6-24.2-1.2-2.4-1-3.2-4-3.2-12.2v-11l21.8 0.8c12 0.4 22.6 1.2 23.4 2z m161.8 5c-2.6 14.6-5.8 18.2-17.6 19.6-6 0.8-34.8 0.6-64.4-0.4-60-2-59-1.8-59-16.8v-7.6l51.6 1.2c29.6 0.6 56 0.2 62.4-1 6-1 15-2 19.8-2.2l8.6-0.2-1.4 7.4z m422.4 12c0 22.8 4 40.4 12.6 56.4l6 10.8-5.2-4.8c-6.8-6.4-13.8-20.4-16.6-33.4-2.4-11.4-3-44.8-0.8-47 3.2-3.4 4-0.2 4 18z m-11.2-2c0 8.6 0.8 19.8 1.6 25 1.2 6.8 0.8 9-1 8.2-1.2-0.4-3-3.6-3.6-7-2-10-1.4-41.6 0.8-41.6 1.2 0 2 6.6 2.2 15.4z m-129.2-11.2c-7.2 1.4-115.6 11.8-124.2 11.8-2 0-2.8-0.6-2-1.4 1.6-1.6 109.2-12.2 124.2-12.2h10l-8 1.8zM74.2 636.6c0.8 8 3.2 19.8 5.6 26.4 2.8 8.6 3.2 10.8 1 8-1.6-2.2-4.2-8.4-6-14-3.4-11.4-6.2-38.8-3.6-36.4 0.8 0.8 2.2 8 3 16z m25.4 2.4c2.2 19 11 43.8 17.6 49.2 4 3.2 3.4 5.8-1 5.8-4.8 0-9.4-5.2-5.8-6.6 1.6-0.6 0.2-1.8-3.2-3.2-4.6-1.8-5.2-2.8-3.2-5.2 2-2.4 1.6-3.2-2.8-5-5-1.8-7.2-6-3.2-6 3.6 0 2-3.6-2-4.6-4-1-5.6-5.4-2-5.4 1.2 0 2-1 2-2 0-1.2-1.2-2-2.8-2-1.6 0-3.2-1.4-4-3-0.8-2 0.2-3 2.8-3 2.2 0 4-1 4-2 0-1.2-1.8-2-3.8-2-2 0-4.2-1.4-5-3-0.8-2 0.2-3 2.8-3 2.2 0 4-1 4-2 0-1.2-1.8-2-4-2-2.4 0-4-1.4-4-3.2 0-1.8 1.8-3.6 4-4.2 2.2-0.6 4-2.4 4-3.8 0-1.6 0.8-2.8 1.8-2.8 0.8 0 2.6 8.6 3.8 19zM414 622c0 1-1 2-2.2 2-1 0-1.4-1-0.8-2 0.6-1.2 1.6-2 2.2-2 0.4 0 0.8 0.8 0.8 2z m165 10.6l2 10.6-5.4-0.8c-6.4-1-7.6-6.4-1.4-6.4 2.4 0 3.4-0.8 2.6-2.2-0.6-1.2-3-1.8-5-1.2-2.8 0.8-3.8 0-3.8-3s0.8-3.6 4.4-2.6c3.4 1.2 4 0.8 3-1.8-0.8-1.8-0.6-3.2 0.2-3.2s2.4 4.8 3.4 10.6z m-492.8 18.4c2.8 14.8 10.4 29.6 21.2 41.4 6.2 6.6 7.4 8.8 3.6 5.8-16.4-12.4-28.4-36.8-30-60.8-0.8-13.2-0.6-13.6 1.2-5.4 1 5 2.8 13.4 4 19z m322.4-9c3.2 0 4.6 1.2 4.8 4 0.4 4.6-1.4 5.2-5 1.6-4-4-3 15 1.6 28.6 5.2 15 8.2 20.2 19.8 32.6 7.8 8.2 8.2 9 2.6 5-8.4-6-19.4-22-24.6-35.8-2.8-7.6-4.2-16.6-4.6-30.8-0.4-11.2-0.4-16.8 0.2-12.8 0.6 6.2 1.6 7.6 5.2 7.6z m-20.6 0.4c0 12 3.4 28 8.4 39.4 3 7 4.2 8.4 5.6 6.2 1.2-1.6 2-2 2-0.8s3.6 8 8 15l8 12.8-10-11c-13.6-14.8-21.4-31.2-24-50.6-2.6-20.2-2.6-27.4 0-23.4 1 1.6 2 7.2 2 12.4z m10 23.4c1 6 1.6 11.2 1.2 11.8-1.8 1.8-7.2-28.4-7-39l0.4-11.6 1.6 14c1 7.6 2.6 18.8 3.8 24.8z m171.2-11.2c1.8 3.6 4.6 8.2 6.4 10.4 1.6 2.2-0.8 0.2-5.2-4.4-7.6-7.6-8.4-9.4-8.2-18l0.2-9.6 1.8 7.6c1 4.2 3.2 10.4 5 14z m14.8-6.6c0 1-1.8 2-4 2s-4-1-4-2c0-1.2 1.8-2 4-2s4 0.8 4 2z m244 4.2c0 1.2-0.8 1.4-2 0.8-1-0.6-2-2.2-2-3.2 0-1.2 1-1.4 2-0.8 1.2 0.6 2 2.2 2 3.2zM586 656c0 1-1.8 2-4.2 2-2.2 0-3.4-1-2.8-2 0.6-1.2 2.6-2 4.2-2s2.8 0.8 2.8 2z m244.2 3.4c2.6 3.2 2.4 3.4-0.6 0.8-3.4-2.6-4.4-4.2-2.8-4.2 0.4 0 2 1.6 3.4 3.4z m-642.6 5.6c-4.2 3.8-8.6 7-10 7-1.4 0 0.2-1.6 3.4-3.6 3.4-2.2 7.2-5.2 8.8-7 1.4-2 3.2-3.4 4-3.4 0.6 0-2.2 3.2-6.2 7z m403.8-1.8c-0.6 0.6-2.4 0.8-3.8 0.2-1.6-0.6-1-1.2 1.2-1.2 2.2-0.2 3.4 0.4 2.6 1z m-30.4 4.8c0.6 1-0.2 2-1.8 2-1.8 0-3.2-1-3.2-2 0-1.2 0.8-2 1.8-2 1.2 0 2.6 0.8 3.2 2z m277.2 3.4c2.6 3.2 2.4 3.4-0.6 0.8-3.4-2.6-4.4-4.2-2.8-4.2 0.4 0 2 1.6 3.4 3.4z m-666.6 2c-2 0.4-5.6 0.4-8 0-2.6-0.4-1-0.8 3.4-0.8 4.4-0.2 6.4 0.2 4.6 0.8zM127.4 700c3.8 3 4.2 4 1.8 4-1.8 0-3.2-1-3.2-2 0-1.2-1.4-2-3-2s-3-1-3-2c0-3 1.8-2.4 7.4 2z" p-id="2315" fill="#2c2c2c"></path><path d="M888 530c0 1 1 2 2 2 1.2 0 2-1 2-2 0-1.2-0.8-2-2-2-1 0-2 0.8-2 2zM883.6 549.2c-8.6 4.6-13.6 16.8-16 38-4.2 39.4 9.6 73.6 29.8 73.6 9.2 0 18.2-9.6 24.6-26 6.8-17.2 6.8-51.2 0.2-66.4-8.8-19.6-24-27.2-38.6-19.2z m19 16.2c-1.4 0.4-4.2 0.4-6 0-2-0.6-0.8-1 2.4-1 3.4 0 4.8 0.4 3.6 1z m-2.6 17c3.4-2 4.2-1.6 7.2 4 5.4 10.4 6 27.4 1.2 38.2-6.8 15.2-17.6 15.2-22.6-0.2-1.2-4-3-8.2-4-9.4-2.6-2.6-2.2-7.8 1.2-14.2 1.6-3.2 3-8.6 3-12 0-7.8 1.4-9.2 6.2-6.2 3 1.8 4.6 1.8 7.8-0.2z" p-id="2316" fill="#2c2c2c"></path><path d="M890 597.2c-3 7.6-2.4 19.4 1.2 24.4 3.8 5.4 5.6 5.6 10.8 0.4 4.4-4.4 5.6-19.4 2-26.2-3.2-5.8-11.6-5-14 1.4z m10 10.8c0 3.2-0.8 6.2-1.8 7-2.6 1.4-4.8-6-3.2-11 1.8-5.6 5-3 5 4zM845.2 635.6c-2.6 2.4-1 4.4 3.8 4.4 2.8 0 5-0.8 5-1.8 0-2-7.2-4.2-8.8-2.6zM465.8 567.6c-22 11.4-41.2 53.8-31.4 68.8 1.6 2.6 4.4 9.6 6.2 15.6 7.2 24 22 41.4 39.6 46 14.8 4 25.6-1.2 46.8-22.6 15.4-15.6 15.8-16.4 17.2-28.2 4.2-35-10-68.8-34.6-81.4-11.6-6-30.4-5.2-43.8 1.8z m39.6 20.4c6.4 3.8 18.6 18.8 18.6 22.6 0 1.2-2.6-2-5.8-6.8-8.4-13.4-17.8-18.6-31.4-17.4-6.2 0.6-9.8 0.2-8.4-0.6 4.8-3.2 20.4-1.8 27 2.2z m-37.8 7.4c-4 4.2-8.6 10.2-10.2 13.6-1.8 3.2-3.2 5-3.4 3.8 0-3.2 9.6-17.2 14.6-21.2 7.2-5.6 6.6-4.2-1 3.8z m18.6 10.6c1.6 0 5.2-1.4 8.2-2.8 5.2-2.8 5.8-2.6 9.6 2.2 6 7.6 10.6 25.4 9 34.2-3.2 17.2-13.2 28.4-25.2 28.4-7.6 0-17.8-6.8-17.8-12 0-5.8-4.4-14-7.4-14-1.6 0-2.6-2.4-2.6-6 0-3.4 0.8-6 2-6 2.8 0 10.4-15.6 9.6-19.8-0.4-2 0.6-5 2.2-7 2.4-3 3.2-3 6.2-0.2 1.8 1.6 4.6 3 6.2 3z m-32.8 14.4c-0.6 1.6-1.2 1-1.2-1.2-0.2-2.2 0.4-3.4 1-2.6 0.6 0.6 0.8 2.4 0.2 3.8z m74 20c-0.4 3.6-0.8 0.8-0.8-6.4s0.4-10 0.8-6.6c0.4 3.6 0.4 9.6 0 13z m-76 3c-0.4 3.2-0.8 0.6-0.8-5.4s0.4-8.6 0.8-5.6c0.4 3.2 0.4 8 0 11z m74 9c-0.6 1.6-1.2 1-1.2-1.2-0.2-2.2 0.4-3.4 1-2.6 0.6 0.6 0.8 2.4 0.2 3.8z m-72 2c-0.6 1.6-1.2 1-1.2-1.2-0.2-2.2 0.4-3.4 1-2.6 0.6 0.6 0.8 2.4 0.2 3.8z m67.8 9c-3.4 6.8-18 20.6-21.8 20.6-1.2 0 0.4-1.6 3.6-3.8 7.2-4.2 16.2-14.4 18-20.4 0.8-2.2 1.8-3.6 2.4-3.2 0.4 0.6-0.4 3.6-2.2 6.8z m-50.2 15.4c3.2 2 10.2 4.4 15.8 5.2 10 1.4 10 1.6 2.2 1.8-4.4 0-11.2-1.4-15-3.6-7-3.6-20-18.4-20-22.8 0-1.2 2.6 1.8 5.6 6.8 3.2 4.8 8.2 10.6 11.4 12.6z" p-id="2317" fill="#2c2c2c"></path><path d="M481 618.6c-7.8 6.6-9.2 22-3 29.8 9.4 12.2 26 3.6 26-13.2 0-16-13-25.4-23-16.6z m12.6 9.8c3.6 3.6 2.8 11.2-1.2 13.4-4.6 2.4-8.4-0.6-8.4-6.8 0-4 3.4-9 6-9 0.6 0 2.2 1 3.6 2.4zM20 574c0 3.8 2.2 5.2 4.6 2.8 1.6-1.6-0.6-6.8-2.8-6.8-1 0-1.8 1.8-1.8 4zM342 584c0 2.6 1 4 2.6 3.4 1.2-0.4 2.4-2 2.4-3.4s-1.2-3-2.4-3.6c-1.6-0.4-2.6 1-2.6 3.6z" p-id="2318" fill="#2c2c2c"></path></svg>